HIERARCHY
ROOT Hips
{
  OFFSET -25.4992 47.4658 0.522821
  CHANNELS 6 Xposition Yposition Zposition Zrotation Xrotation Yrotation
  JOINT Bip01_Pelvis
  {
    OFFSET 0 0 0
    CHANNELS 6 Xposition Yposition Zposition Zrotation Xrotation Yrotation
    JOINT Bip01_Spine
    {
      OFFSET 7.92815 1.03427 -0.957866
      CHANNELS 6 Xposition Yposition Zposition Zrotation Xrotation Yrotation
      JOINT Bip01_Spine1
      {
        OFFSET 14.2482 -0.00839019 0.000894789
        CHANNELS 6 Xposition Yposition Zposition Zrotation Xrotation Yrotation
        JOINT Bip01_Neck
        {
          OFFSET 16.1384 -3.98645 0.000135839
          CHANNELS 6 Xposition Yposition Zposition Zrotation Xrotation Yrotation
          JOINT Bip01_Neck1
          {
            OFFSET 9.69266 -0.00491233 0
            CHANNELS 6 Xposition Yposition Zposition Zrotation Xrotation Yrotation
            JOINT Bip01_Head
            {
              OFFSET 6.2355 0 0
              CHANNELS 6 Xposition Yposition Zposition Zrotation Xrotation Yrotation
              JOINT BN_Mouth_01
              {
                OFFSET 4.58056 2.14338 0
                CHANNELS 6 Xposition Yposition Zposition Zrotation Xrotation Yrotation
                End Site
                {
                  OFFSET 0 0 0
                }
              }
            }
          }
          JOINT Bip01_L_Clavicle
          {
            OFFSET -0.933029 -3.98291 -6.88005
            CHANNELS 6 Xposition Yposition Zposition Zrotation Xrotation Yrotation
            JOINT Bip01_L_UpperArm
            {
              OFFSET 15.6802 0 0
              CHANNELS 6 Xposition Yposition Zposition Zrotation Xrotation Yrotation
              JOINT Bip01_L_Forearm
              {
                OFFSET 15.3149 0 0
                CHANNELS 6 Xposition Yposition Zposition Zrotation Xrotation Yrotation
                JOINT Bip01_L_Hand
                {
                  OFFSET 16.178 0 0
                  CHANNELS 6 Xposition Yposition Zposition Zrotation Xrotation Yrotation
                  JOINT Bip01_L_Finger0
                  {
                    OFFSET 12.9992 0 0
                    CHANNELS 6 Xposition Yposition Zposition Zrotation Xrotation Yrotation
                    End Site
                    {
                      OFFSET 0 0 0
                    }
                  }
                }
              }
              JOINT BN__UpperArm_L_01
              {
                OFFSET 4.92586 2.56729 1.95639
                CHANNELS 6 Xposition Yposition Zposition Zrotation Xrotation Yrotation
                End Site
                {
                  OFFSET 0 0 0
                }
              }
            }
          }
          JOINT Bip01_R_Clavicle
          {
            OFFSET -1.90751 -3.34722 7.0168
            CHANNELS 6 Xposition Yposition Zposition Zrotation Xrotation Yrotation
            JOINT Bip01_R_UpperArm
            {
              OFFSET 15.6801 0 0
              CHANNELS 6 Xposition Yposition Zposition Zrotation Xrotation Yrotation
              JOINT Bip01_R_Forearm
              {
                OFFSET 15.3149 0 0
                CHANNELS 6 Xposition Yposition Zposition Zrotation Xrotation Yrotation
                JOINT Bip01_R_Hand
                {
                  OFFSET 16.1779 0 0
                  CHANNELS 6 Xposition Yposition Zposition Zrotation Xrotation Yrotation
                  JOINT Bip01_R_Finger0
                  {
                    OFFSET 12.9991 0 0
                    CHANNELS 6 Xposition Yposition Zposition Zrotation Xrotation Yrotation
                    End Site
                    {
                      OFFSET 0 0 0
                    }
                  }
                }
              }
              JOINT BN__UpperArm_R_01
              {
                OFFSET 4.92584 2.56728 -1.95638
                CHANNELS 6 Xposition Yposition Zposition Zrotation Xrotation Yrotation
                End Site
                {
                  OFFSET 0 0 0
                }
              }
            }
          }
        }
      }
      JOINT Bip01_L_Thigh
      {
        OFFSET -8.91231 -1.85462 5.82833
        CHANNELS 6 Xposition Yposition Zposition Zrotation Xrotation Yrotation
        JOINT Bip01_L_Calf
        {
          OFFSET 15.7566 0 0
          CHANNELS 6 Xposition Yposition Zposition Zrotation Xrotation Yrotation
          JOINT Bip01_L_HorseLink
          {
            OFFSET 16.2363 0 0
            CHANNELS 6 Xposition Yposition Zposition Zrotation Xrotation Yrotation
            JOINT Bip01_L_Foot
            {
              OFFSET 13.9816 0 0
              CHANNELS 6 Xposition Yposition Zposition Zrotation Xrotation Yrotation
              JOINT Bip01_L_Toe0
              {
                OFFSET 7.68594 5.03696 0
                CHANNELS 6 Xposition Yposition Zposition Zrotation Xrotation Yrotation
                End Site
                {
                  OFFSET 0 0 0
                }
              }
            }
          }
        }
      }
      JOINT Bip01_R_Thigh
      {
        OFFSET -6.80264 -1.57702 -6.62463
        CHANNELS 6 Xposition Yposition Zposition Zrotation Xrotation Yrotation
        JOINT Bip01_R_Calf
        {
          OFFSET 15.7566 0 0
          CHANNELS 6 Xposition Yposition Zposition Zrotation Xrotation Yrotation
          JOINT Bip01_R_HorseLink
          {
            OFFSET 16.2363 0 0
            CHANNELS 6 Xposition Yposition Zposition Zrotation Xrotation Yrotation
            JOINT Bip01_R_Foot
            {
              OFFSET 13.9816 0 0
              CHANNELS 6 Xposition Yposition Zposition Zrotation Xrotation Yrotation
              JOINT Bip01_R_Toe0
              {
                OFFSET 7.68597 5.03696 0
                CHANNELS 6 Xposition Yposition Zposition Zrotation Xrotation Yrotation
                End Site
                {
                  OFFSET 0 0 0
                }
              }
            }
          }
        }
      }
    }
    JOINT BN_Tail_01
    {
      OFFSET -7.9584 -2.82211 0
      CHANNELS 6 Xposition Yposition Zposition Zrotation Xrotation Yrotation
      JOINT BN_Tail_02
      {
        OFFSET 10.9082 0 0.00113176
        CHANNELS 6 Xposition Yposition Zposition Zrotation Xrotation Yrotation
        End Site
        {
          OFFSET 0 0 0
        }
      }
    }
  }
}
MOTION
Frames:	4
Frame Time:	0.0333333
-48.867 26.5377 -6.20062 -92.0568 -75.1887 -11.1911 -8.41442e-007 -2.42169e-007 1.6397e-007 -88.8825 20.6953 -109.354 6.68604 3.81889 -2.36811 35.7772 -5.22901 4.1093 14.2528 -0.00741751 0.00126344 27.7902 -8.58164 15.5729 16.1467 -3.99024 0.00101462 14.3862 -7.59062 29.3575 9.69793 -0.00186375 0.000421285 67.9234 -4.94374 29.3377 6.2355 4.86844e-007 -9.58193e-007 -53.4067 0.599115 -38.2456 4.58057 2.14337 -9.5917e-007 -122.071 -0.0307159 -179.983 -0.041236 1.53878 -7.86018 -169.216 -42.1275 -52.3599 15.6801 -3.26171e-006 4.47664e-006 4.87699 -27.3437 114.566 15.3149 4.91294e-006 -3.64631e-007 -134.738 4.15798e-005 2.0678e-005 16.1779 -1.33207e-006 2.65684e-006 115.188 -81.4927 119.506 12.9992 -4.69685e-006 -2.07339e-006 -0.455322 1.65152 -29.7335 6.50944 2.82374 -7.93735 -126.021 -79.3772 -131.368 -6.81881 -0.303664 4.18749 157.308 13.1086 117.262 15.6801 -2.12237e-006 -2.99342e-006 -38.3446 35.6963 -46.8494 15.3149 2.7747e-006 -6.97905e-007 -108.095 2.29616e-006 -2.77745e-005 16.1779 -4.20509e-006 3.89532e-006 160.902 47.0842 -150.082 12.9992 4.55386e-006 4.00367e-006 -2.61696 -0.769869 24.692 6.24705 4.29087 7.19414 53.9726 -79.3763 48.6261 -8.26253 0.0157315 8.1513 -101.934 -6.25473 -157.305 15.7566 -5.12471e-006 -1.6842e-006 -136.093 -5.41878e-006 -1.58598e-006 16.2363 1.28898e-006 -2.7858e-009 103.622 0.00216628 -0.00274356 13.9815 5.92794e-007 1.57884e-006 27.747 -17.7423 -6.41008 7.6859 5.03696 5.91068e-007 88.4613 -1.34174e-006 1.74794e-005 -7.36071 1.16749 -4.39718 177.092 -14.4177 142.812 15.7566 -4.23646e-006 -9.37481e-007 -136.384 -2.00556e-005 -1.0684e-006 16.2363 -2.41845e-006 -2.78512e-006 102.833 -4.5902e-006 -7.97555e-006 13.9816 -7.85886e-007 1.77817e-006 -55.9698 -23.8369 2.1989 7.68596 5.03696 -2.86637e-006 95.1321 -1.7711e-005 6.70017e-007 -7.9584 -2.8221 1.49746e-006 16.7741 2.2058 172.329 10.9082 1.48875e-007 0.00121368 31.1233 14.8854 23.9909 
-39.2007 28.499 -4.58425 -83.2092 -76.6007 -1.72273 -1.13653e-007 -3.55265e-007 7.40306e-007 -88.9051 19.4494 -107.919 6.81988 3.66366 -2.22458 30.8907 -4.97996 4.07145 14.2502 -0.00760474 0.000756287 17.0971 -6.95446 8.73642 16.1435 -3.98945 0.00149346 10.8092 -15.9815 24.7162 9.69562 -0.00271202 0.000768361 64.5737 -14.8463 23.5248 6.23425 9.38295e-006 6.07194e-005 -23.1763 -7.88767 -25.7379 4.57946 2.14284 2.16002e-005 -122.127 -0.0312652 -179.982 -0.80101 2.28333 -7.63335 -169.674 -43.2283 -58.1371 15.6763 0.000124246 6.67454e-006 -9.1549 -18.5684 95.2304 15.3108 -2.52275e-005 -1.74986e-005 -114.015 -0.000222957 0.000248887 16.1722 1.14507e-005 -7.12619e-005 63.9925 -85.4471 77.5813 12.994 2.94879e-005 2.64517e-006 -0.450925 1.65579 -24.6191 6.5118 2.81996 -7.96201 -126.02 -79.3773 -131.367 -6.40582 -1.55575 4.5425 168.182 1.55309 111.327 15.6761 0.000126688 0.000137941 -35.2541 42.4284 -54.3878 15.3107 -3.47132e-005 6.82124e-005 -105.96 0.000335938 -0.000632895 16.1723 1.88183e-005 0.000240884 171.528 47.7545 -120.703 12.9931 -0.00025023 -0.000171179 -2.62087 -0.77307 37.2114 6.23335 4.25777 7.0839 53.9731 -79.3766 48.6267 -8.31988 -0.385022 7.96863 -73.5131 4.84865 -158.302 15.7544 3.98637e-005 5.79446e-005 -95.3557 0.000216319 -7.79978e-005 16.234 -4.42778e-005 1.62921e-005 90.1695 -4.62205e-005 -0.000229333 13.9776 4.02173e-005 5.50995e-005 25.4565 -16.6459 -9.61149 7.68302 5.03503 4.74843e-006 90.0012 -1.35752e-005 -3.24845e-005 -7.42616 0.711576 -4.58418 -155.919 -11.4856 145.434 15.7552 -1.65157e-005 -0.000138553 -143.547 -0.000269903 -0.000420487 16.2331 5.27142e-005 0.00011896 106.531 -0.000246327 0.000398684 13.9768 -2.75294e-005 -0.00011086 -27.563 -22.4503 16.3548 7.6821 5.03444 -3.17161e-005 95.0066 0.000135865 0.000169874 -7.95821 -2.82203 3.76991e-006 19.838 -0.850913 172.262 10.907 -2.5188e-006 0.0012103 34.0159 8.8351 12.0046 
-27.8017 30.9015 -2.61618 -70.3099 -77.9425 12.1747 9.04034e-009 -1.46477e-007 2.18652e-006 -88.9352 18.0201 -105.625 6.98873 3.48308 -1.9738 24.795 -4.41945 3.54846 14.2484 -0.00779269 0.00019489 4.40739 -3.26005 0.787268 16.1419 -3.98906 0.00186695 4.10702 -22.4052 19.4421 9.69468 -0.00347022 0.000990478 54.5906 -20.1905 17.3254 6.23415 1.01428e-005 -8.00465e-007 4.31486 -8.53253 -17.1698 4.57929 2.14276 9.98762e-006 -122.182 -0.0322571 -179.982 -1.55467 2.58164 -7.41875 -168.442 -39.8893 -62.9477 15.6763 -7.75654e-005 -0.000149233 -19.4793 -13.4732 76.2784 15.3104 7.40652e-005 0.00015542 -85.9285 0.000568194 -0.000326995 16.1733 -8.53982e-005 9.52105e-005 55.2674 -89.0696 69.8526 12.9949 -4.65526e-005 -3.60199e-005 -0.451391 1.65585 -17.5761 6.51506 2.81751 -7.98499 -126.02 -79.3766 -131.367 -5.84587 -2.73305 4.73611 178.572 -8.0554 108.001 15.6758 3.72338e-006 4.80897e-007 -26.5244 42.2249 -65.5124 15.3098 -2.592e-005 7.59369e-005 -93.5382 0.000269416 -2.1534e-005 16.1713 3.44369e-005 -3.39303e-007 175.804 51.4178 -110.843 12.9922 4.4704e-005 2.3763e-005 -2.61504 -0.774667 44.6077 6.22098 4.22585 6.97587 53.9727 -79.3767 48.6261 -8.30018 -0.86902 7.74837 -48.3097 11.6458 -163.678 15.7543 -3.17196e-005 7.96379e-005 -56.7974 0.000507989 9.63512e-005 16.2328 1.80132e-005 -3.24274e-005 77.063 0.000238531 -0.000556444 13.9765 -2.05036e-005 0.000135506 12.7259 -13.5264 -14.6589 7.68246 5.03469 6.5472e-005 98.8159 -0.000179532 -0.000555611 -7.5205 0.104851 -4.82213 -121.812 -11.0469 151.023 15.755 -1.32852e-005 -3.37516e-006 -131.503 4.64425e-006 -2.06628e-005 16.233 3.19068e-005 3.00063e-006 96.5732 -2.57502e-006 -1.37857e-005 13.9765 -2.05172e-005 2.1557e-006 0.403536 -11.4724 24.8337 7.68198 5.03436 -2.76976e-005 94.8815 0.000180298 5.14682e-005 -7.9582 -2.82203 -7.50102e-007 22.9003 -3.99375 172.205 10.907 -4.83801e-007 0.00121479 33.6962 -0.130706 0.0506844 
-17.7996 33.0434 -0.890118 -56.6644 -78.778 26.8572 -5.23472e-008 -2.11564e-007 1.86612e-006 -89.0263 16.7419 -103.075 7.14366 3.31928 -1.67661 19.0666 -3.35332 2.78425 14.2483 -0.00797827 -0.000342589 -6.95061 1.75775 -5.83174 16.1431 -3.98934 0.00228975 -6.33233 -25.5886 14.4822 9.69594 -0.00426733 0.00129125 37.6019 -16.9383 13.1351 6.2355 -3.98767e-006 2.03574e-006 14.9273 -4.75074 -9.5465 4.58059 2.14338 3.10649e-006 -122.238 -0.0328064 -179.982 -2.07343 2.29606 -7.38731 -162.882 -32.1656 -64.3834 15.6801 2.97898e-006 -2.70132e-008 -29.5713 -7.77521 63.6715 15.3149 3.4776e-006 -1.84556e-006 -57.5215 -1.31769e-005 1.79706e-005 16.1779 -2.00833e-006 2.88232e-007 168.879 -85.9104 -177.759 12.9992 -6.64555e-007 -3.41578e-006 -0.450604 1.65708 -10.5332 6.52051 2.81569 -8.0104 -126.021 -79.3773 -131.367 -5.21918 -3.72766 4.79036 -170.49 -11.4521 107.481 15.6801 1.01898e-006 -1.76057e-006 -13.9456 27.4772 -72.6254 15.3149 4.74657e-006 1.67367e-007 -105.036 1.44338e-005 -1.63162e-005 16.1779 -2.91033e-006 -6.378e-007 -173.241 54.9276 -129.2 12.9991 8.41222e-007 -6.6485e-007 -2.61781 -0.77528 37.5391 6.20985 4.19654 6.86278 53.9722 -79.3762 48.6257 -8.21248 -1.26925 7.54238 -41.5541 11.1508 -166.804 15.7566 -4.74298e-006 2.51432e-006 -52.6347 -2.09661e-005 -3.70098e-006 16.2363 6.00613e-007 4.42358e-006 84.2526 -2.50002e-005 -1.29641e-005 13.9816 5.72218e-006 1.63601e-006 -12.2474 -6.73557 -19.3089 7.68593 5.03697 -9.30504e-007 115.589 2.20876e-005 1.44041e-005 -7.5994 -0.53037 -5.05453 -97.7596 -11.6033 155.638 15.7566 -6.22652e-006 -3.06183e-006 -107.97 -6.32914e-006 -1.00913e-005 16.2363 -2.31243e-006 -1.51457e-006 71.8446 -2.01528e-005 1.16908e-005 13.9816 1.54674e-006 -2.57447e-007 21.3489 -2.36428 23.4191 7.68595 5.03695 -3.85663e-006 94.7565 -4.31575e-005 1.39166e-005 -7.9584 -2.8221 1.6078e-007 25.84 -6.8941 172.151 10.9082 -6.113e-007 0.00121398 29.1665 -8.77523 -11.373 
